D:\school\WTK\thesis\model\3dpredictsim\Results\debug_batch\Pog_s1_tmt_bCst_d00_k2000_ig24_act_TTC_GRF.mot
nRows=15
nColumns=19

name D:\school\WTK\thesis\model\3dpredictsim\Results\debug_batch\Pog_s1_tmt_bCst_d00_k2000_ig24_act_TTC_GRF.mot
datacolumns 19
datarows 15
range 0.6092606194 0.7798535929
endheader
time 	ground_force_vx	ground_force_vy	ground_force_vz	ground_force_px	ground_force_py	ground_force_pz	1_ground_force_vx	1_ground_force_vy	1_ground_force_vz	1_ground_force_px	1_ground_force_py	1_ground_force_pz	ground_torque_x	ground_torque_y	ground_torque_z	1_ground_torque_x	1_ground_torque_y	1_ground_torque_z
        0.6092606194	      108.8811396669	      439.8766989396	        1.0324670069	        0.4112171839	        0.0000000000	        0.0367992576	      -49.9018652537	       39.0239876673	      -12.3804129612	        0.9537049957	        0.0000000000	       -0.0512930299	        0.0000000000	        0.0000000000	        0.0000000000	        0.0000000000	        0.0000000000	        0.0000000000	
        0.6214458318	       76.7874604191	      339.5015132817	        6.3432007231	        0.4183222776	        0.0000000000	        0.0341238331	     -120.6129085547	      123.1361128797	      -42.7883545215	        0.9618948588	        0.0000000000	       -0.0493963266	        0.0000000000	        0.0000000000	        0.0000000000	        0.0000000000	        0.0000000000	        0.0000000000	
        0.6336310442	       42.1161706685	      225.7121377576	       13.6369948273	        0.4312220328	        0.0000000000	        0.0288989209	      -60.5789573427	      299.2742159045	      -16.3506410090	        0.9675160802	        0.0000000000	       -0.0475622158	        0.0000000000	        0.0000000000	        0.0000000000	        0.0000000000	        0.0000000000	        0.0000000000	
        0.6458162566	       27.3879865595	      168.2578278846	       15.5770497881	        0.4398759093	        0.0000000000	        0.0249443725	      -57.3677919480	      497.9533846474	        4.3501010119	        0.9706780556	        0.0000000000	       -0.0474312613	        0.0000000000	        0.0000000000	        0.0000000000	        0.0000000000	        0.0000000000	        0.0000000000	
        0.6580014690	       25.4162572053	      134.1101762711	       14.0139357818	        0.4402904703	        0.0000000000	        0.0248948204	     -100.4885577057	      707.5229860910	       14.5224053083	        0.9791433798	        0.0000000000	       -0.0493598798	        0.0000000000	        0.0000000000	        0.0000000000	        0.0000000000	        0.0000000000	        0.0000000000	
        0.6701866814	       15.7939223410	       87.1966269365	       14.2700452630	        0.4405883657	        0.0000000000	        0.0251511821	     -134.4615880507	      851.4970815292	       20.2734025518	        0.9873417597	        0.0000000000	       -0.0513181425	        0.0000000000	        0.0000000000	        0.0000000000	        0.0000000000	        0.0000000000	        0.0000000000	
        0.6823718938	        1.4357686880	       35.0165919295	        8.7835830179	        0.4401974170	        0.0000000000	        0.0253043669	     -143.3258689144	      887.5651410025	       20.9798148884	        0.9927384942	        0.0000000000	       -0.0524840431	        0.0000000000	        0.0000000000	        0.0000000000	        0.0000000000	        0.0000000000	        0.0000000000	
        0.6945571062	        0.2736141804	       -0.2759879194	       -0.0082416037	        0.0000000000	        0.0000000000	        0.0000000000	     -134.2422882095	      867.9693652488	       20.0392807678	        0.9966502255	        0.0000000000	       -0.0531785757	        0.0000000000	        0.0000000000	        0.0000000000	        0.0000000000	        0.0000000000	        0.0000000000	
        0.7067423186	        0.0017154721	       -0.0013777996	        0.0001033510	        0.0000000000	        0.0000000000	        0.0000000000	     -118.0216244672	      825.9074412547	       19.1651350213	        1.0002567551	        0.0000000000	       -0.0535648691	        0.0000000000	        0.0000000000	        0.0000000000	        0.0000000000	        0.0000000000	        0.0000000000	
        0.7189275309	        0.0025274316	       -0.0017339059	        0.0001907636	        0.0000000000	        0.0000000000	        0.0000000000	     -103.0184224306	      780.4398627547	       18.3008132900	        1.0040974747	        0.0000000000	       -0.0536956019	        0.0000000000	        0.0000000000	        0.0000000000	        0.0000000000	        0.0000000000	        0.0000000000	
        0.7311127433	        0.0314783672	       -0.0192312596	        0.0025147046	        0.0000000000	        0.0000000000	        0.0000000000	      -90.3277944031	      741.1010146933	       17.8089477287	        1.0083605578	        0.0000000000	       -0.0536638037	        0.0000000000	        0.0000000000	        0.0000000000	        0.0000000000	        0.0000000000	        0.0000000000	
        0.7432979557	       -0.1745279150	        0.0974871629	       -0.0141528206	        0.0000000000	        0.0000000000	        0.0000000000	      -80.4383394592	      711.5509346633	       17.6285320037	        1.0133370914	        0.0000000000	       -0.0534538220	        0.0000000000	        0.0000000000	        0.0000000000	        0.0000000000	        0.0000000000	        0.0000000000	
        0.7554831681	       -0.1316877331	        0.0691284779	       -0.0101639835	        0.0000000000	        0.0000000000	        0.0000000000	      -70.9532431468	      685.4553639629	       18.3348132080	        1.0184276285	        0.0000000000	       -0.0531632848	        0.0000000000	        0.0000000000	        0.0000000000	        0.0000000000	        0.0000000000	        0.0000000000	
        0.7676683805	       -0.0771716475	        0.0385131243	       -0.0057767783	        0.0000000000	        0.0000000000	        0.0000000000	      -61.7732179036	      660.3826753614	       19.1310789550	        1.0232305618	        0.0000000000	       -0.0529374748	        0.0000000000	        0.0000000000	        0.0000000000	        0.0000000000	        0.0000000000	        0.0000000000	
        0.7798535929	       -0.0530730148	        0.0253995603	       -0.0038829664	        0.0000000000	        0.0000000000	        0.0000000000	      -53.0355284537	      638.7452622565	       19.4193497993	        1.0278466243	        0.0000000000	       -0.0527951142	        0.0000000000	        0.0000000000	        0.0000000000	        0.0000000000	        0.0000000000	        0.0000000000	
